<?xml version="1.0" encoding="utf-8"?>
<!-- Generator: Adobe Illustrator 20.0.0, SVG Export Plug-In . SVG Version: 6.00 Build 0)  -->
<svg version="1.1" xmlns="http://www.w3.org/2000/svg" xmlns:xlink="http://www.w3.org/1999/xlink" x="0px" y="0px"
	 viewBox="0 0 24 24" style="enable-background:new 0 0 24 24;" xml:space="preserve">
<style type="text/css">
	.st0{fill:#E0E0E0;}
	.st1{fill:#E0E0E0;stroke:#FFFFFF;stroke-width:2;stroke-miterlimit:10;}
	.st2{fill:#FFFFFF;}
	.st3{font-family:'HiraKakuStdN-W8-83pv-RKSJ-H';}
	.st4{font-size:3.4441px;}
</style>
<g id="レイヤー_1">
	<g id="レイヤー_2">
	</g>
	<rect class="st0" width="24" height="24"/>
</g>
<g id="レイヤー_2_1_">
	<circle class="st1" cx="12" cy="9.6" r="7.5"/>
	<text transform="matrix(1 0 0 1 4.5002 22.0327)" class="st2 st3 st4">気になる！</text>
	<path class="st2" d="M292,175.3l3.7,2.7l-1.4-4.4l3.7-2.6h-4.5l-1.5-4.5l-1.5,4.5H286l3.7,2.6l-1.4,4.4L292,175.3z"/>
	<path class="st2" d="M292,175.3l3.7,2.7l-1.4-4.4l3.7-2.6h-4.5l-1.5-4.5l-1.5,4.5H286l3.7,2.6l-1.4,4.4L292,175.3z"/>
	<path class="st2" d="M292,175.3l3.7,2.7l-1.4-4.4l3.7-2.6h-4.5l-1.5-4.5l-1.5,4.5H286l3.7,2.6l-1.4,4.4L292,175.3z"/>
	<path class="st2" d="M292,175.3l3.7,2.7l-1.4-4.4l3.7-2.6h-4.5l-1.5-4.5l-1.5,4.5H286l3.7,2.6l-1.4,4.4L292,175.3z"/>
</g>
</svg>
