<?xml version="1.0" encoding="utf-8"?>
<!-- Generator: Adobe Illustrator 20.0.0, SVG Export Plug-In . SVG Version: 6.00 Build 0)  -->
<svg version="1.1" id="レイヤー_1" xmlns="http://www.w3.org/2000/svg" xmlns:xlink="http://www.w3.org/1999/xlink" x="0px"
	 y="0px" viewBox="0 0 24 24" style="enable-background:new 0 0 24 24;" xml:space="preserve">
<style type="text/css">
	.st0{fill:none;}
	.st1{fill:#00ACC1;}
</style>
<path class="st0" d="M0,0h24v24H0V0z"/>
<path class="st1" d="M18.5,4H5.8C4.8,4,4,4.8,4,5.8v12.7c0,1,0.8,1.8,1.8,1.8h3.6l2.7,2.7l2.7-2.7h3.6c1,0,1.8-0.8,1.8-1.8V5.8
	C20.3,4.8,19.5,4,18.5,4z M13,18.5h-1.8v-1.8H13V18.5z M14.9,11.5l-0.8,0.8C13.5,13,13,13.5,13,14.9h-1.8v-0.5c0-1,0.4-1.9,1.1-2.6
	l1.1-1.1c0.3-0.3,0.5-0.8,0.5-1.3c0-1-0.8-1.8-1.8-1.8s-1.8,0.8-1.8,1.8H8.5c0-2,1.6-3.6,3.6-3.6s3.6,1.6,3.6,3.6
	C15.8,10.2,15.4,10.9,14.9,11.5z"/>
</svg>
