<?xml version="1.0" encoding="utf-8"?>
<!-- Generator: Adobe Illustrator 20.0.0, SVG Export Plug-In . SVG Version: 6.00 Build 0)  -->
<svg version="1.1" id="_x32_" xmlns="http://www.w3.org/2000/svg" xmlns:xlink="http://www.w3.org/1999/xlink" x="0px" y="0px"
	 viewBox="0 0 512 512" style="enable-background:new 0 0 512 512;" xml:space="preserve">
<style type="text/css">
	.st0{fill:#FCEE21;}
	.st1{fill:none;stroke:#FFFFFF;stroke-miterlimit:10;}
	.st2{fill:#FFFFFF;}
</style>
<g>
	<path class="st0" d="M400.9,191.9c0-2.7-0.4-5.4-1.3-8l0,0c-3.5-10.8-13.5-18.1-24.8-18.1h-73.1l-22.3-69.3
		c-3.5-10.8-13.5-18.1-24.8-18.1c-11.3,0-21.3,7.3-24.8,18.1l11.3,3.6l-11.3-3.6l-22.3,69.3h-73.1c-11.3,0-21.3,7.3-24.8,18.1l0,0
		c-0.8,2.6-1.3,5.3-1.3,8c0,8.2,3.9,16.2,10.9,21.2l0,0l59.2,42.5l-22.8,69.2l0,0c-0.9,2.7-1.3,5.4-1.3,8.2
		c0,8.2,3.9,16.1,10.7,21.1l0,0c4.6,3.3,9.9,5,15.3,5c5.4,0,10.8-1.7,15.4-5l0,0l58.8-43.1l58.8,43.1l0,0c4.6,3.3,10,5,15.4,5
		c5.4,0,10.8-1.7,15.3-5l0,0c6.9-5,10.7-12.9,10.7-21.1c0-2.7-0.4-5.5-1.3-8.1l-22.8-69.2L390,213l0,0
		C396.9,208.1,400.9,200.1,400.9,191.9z M376.2,193.8L376.2,193.8l-66.3,47.6c-4.2,3-6,8.4-4.3,13.3l25.5,77.5l0.1,0.7
		c0,0.8-0.4,1.5-1,2l0,0c-0.4,0.3-0.9,0.5-1.4,0.5c-0.5,0-1-0.1-1.4-0.5l0,0l-65.8-48.2c-4.1-3-9.8-3-14,0l-65.8,48.2
		c-0.4,0.3-0.9,0.5-1.4,0.5c-0.5,0-1-0.1-1.4-0.5c-0.6-0.5-1-1.2-1-1.9l0.1-0.7l0,0l25.5-77.5c1.6-4.9-0.1-10.3-4.3-13.3L133,193.8
		l0,0c-0.6-0.4-1-1.2-1-1.9l0.1-0.7c0.3-1,1.3-1.7,2.3-1.7h81.7c5.1,0,9.7-3.3,11.3-8.2l24.9-77.5c0.3-1,1.3-1.7,2.3-1.7
		c1,0,2,0.7,2.3,1.7l24.9,77.5c1.6,4.9,6.1,8.2,11.3,8.2h81.7c1,0,2,0.7,2.3,1.7l0.1,0.7C377.2,192.7,376.9,193.4,376.2,193.8z"/>
</g>
<circle class="st1" cx="255.2" cy="263.2" r="220.8"/>
<g>
	<path class="st2" d="M126.1,377.4c2.1,0.2,4.1,0.3,7,0.3c3.5,0,8.2-0.2,10.9-0.4c-1.3-3.4-2-5-2.6-6.1l10.7-1.3
		c0.3,2,0.7,3.4,1.9,6.3c5.9-0.8,13-2.3,16.5-3.4l0.9,8.9c-1.2,0.2-1.2,0.2-4.5,0.9c-3.5,0.7-3.6,0.8-9.7,1.8
		c0.5,1.2,1.2,2.7,1.4,3.2c8.5-1.5,11.4-2.2,14.2-3.2l0.9,9c-1.4,0.2-1.4,0.2-7.5,1.5c-0.1,0-2.9,0.5-3.7,0.7
		c2.5,4.4,4.2,6.8,7.8,11.2l-9,4.6c-3.6-1.9-7.5-2.7-12.8-2.7c-6.8,0-10.5,1.4-10.5,4c0,2.3,3.2,3.4,9.6,3.4c7,0,14.5-1.5,19.4-3.8
		l1.4,10.3c-1.3,0.2-1.3,0.2-4.3,0.9c-5.8,1.3-11.4,1.9-17.1,1.9c-9.3,0-15.5-2-18.5-5.8c-1.4-1.8-2.3-4.3-2.3-6.7
		c0-4.3,2.8-8.2,7.3-10.1c3.6-1.5,7.7-2.3,13.1-2.3c3.2,0,5.7,0.2,8.4,0.7c-0.7-0.9-1.6-2.4-2.8-4.3c-5.2,0.7-12.2,1.1-21,1.3
		c-3.7,0.1-3.8,0.1-5.3,0.3l-0.4-9c1.8,0.2,2.9,0.2,6.3,0.2c5.9,0,11.7-0.3,16.7-0.9c-0.2-0.5-0.7-1.6-1.4-3.2
		c-5.4,0.5-8.2,0.7-15.9,0.7c-2.7,0.1-3.2,0.1-4.6,0.1L126.1,377.4z"/>
	<path class="st2" d="M197.2,372.5c-2.4,7-4.2,18.4-4.6,29.5l4.7,1.6c-1.6,5.5-2.4,11-2.4,17.1c0,1.2,0,1.7,0.2,3l-10.5,0.5
		c-0.1-1.2-0.1-1.6-0.3-3.2c-1.2-8.2-1.6-13.5-1.6-19.3c0-7,0.7-14.7,2.3-23.5c0.7-4.3,0.8-4.7,0.9-6.5L197.2,372.5z M214.1,399.2
		c-2.8,3.6-4.1,6.2-4.1,8.4c0,2.8,2.7,4.3,7.9,4.3c5.4,0,10.6-0.9,15.2-2.5l0.6,10.8c-1.6,0.2-1.6,0.2-5.2,0.7
		c-3.3,0.5-7.1,0.8-10.6,0.8c-5.7,0-9.5-0.8-12.6-2.6c-3.4-2-5.6-5.7-5.6-9.7c0-3,1-6.3,2.9-9.5c0.9-1.4,1.2-2,2.9-4.4L214.1,399.2z
		 M202.1,377.2c2.9,0.6,6.1,0.9,10.9,0.9c8.1,0,14.1-0.5,18.2-1.5l0.4,10.4c-0.5,0-1.2,0.1-4.5,0.4c-4.2,0.4-8.7,0.7-12.9,0.7
		c-3.7,0-6.8-0.1-10.5-0.5c-0.5-0.1-0.9-0.1-1.8-0.1L202.1,377.2z"/>
	<path class="st2" d="M264.8,370.6c-0.4,1.1-0.4,1.1-1.2,4.9c-0.3,1.5-0.4,2-0.7,3.4c3.9-0.4,6.5-0.9,8.5-1.5l0.2,9.9
		c-1.5,0.1-1.5,0.1-4.5,0.5c-1.6,0.2-5,0.5-6.5,0.6c-2.2,7.2-3.8,11.4-6.7,17.7c-1.3,2.8-1.8,3.9-4.2,8.7c-0.8,1.5-0.8,1.5-1.2,2.4
		l-9.9-5.4c4.3-5.8,8.5-14.5,11.3-23.1c-1.2,0-1.2,0-3.4,0c-1.4,0-1.4,0-2.8-0.1c-0.2,0-0.5,0-2.4,0v-9.8c2.3,0.4,5.1,0.6,8.9,0.6
		c0.7,0,1,0,2.2-0.1c0.1-0.5,0.1-0.5,0.5-2.6c0.5-2.1,0.9-5.1,0.9-7.3L264.8,370.6z M291,422.1c-2.3-2.6-4.6-4.6-7.9-6.7
		c-0.2,2.9-0.9,4.6-2.6,6.3c-2.4,2.4-6.7,3.8-11.5,3.8c-4.9,0-9-1.5-11.5-4c-2-2.1-3.1-4.7-3.1-7.6c0-7.1,5.9-12,14.4-12
		c1.3,0,2.3,0.1,4.3,0.4c-0.2-2.3-0.2-3.5-0.2-4.9c0-2.5,0.1-4.5,0.4-7.2l10.1,0.4c-0.5,2.1-0.7,4-0.7,6.9c0,2.2,0.1,4,0.5,7.1
		c3.7,1.6,6.6,3.3,9.4,5.4c0.2,0.1,1.2,0.9,3,2.4L291,422.1z M269.2,410.6c-2.9,0-4.7,1.2-4.7,3.1c0,1.8,1.7,2.9,4.3,2.9
		c3.1,0,4.6-1.3,4.6-3.9c0-0.4-0.1-1.3-0.1-1.3C271.7,410.8,270.6,410.6,269.2,410.6z M291.6,393.4c-5.7-3.6-11.7-6.3-19-8.8
		l5.1-8.4c7.7,2.7,12.7,4.9,18.4,8.2L291.6,393.4z"/>
	<path class="st2" d="M306.8,372.5c2.6,0.3,4.8,0.4,8.8,0.4c5.4,0,12.2-0.2,18.4-0.7c2.7-0.2,3.5-0.4,4.6-0.9l5,7.4
		c-1.6,0.9-1.6,0.9-9.8,8c-3.2,2.7-4.3,3.7-8.4,6.7c3.4-0.9,5.2-1.1,8.4-1.1c5.7,0,9.8,1.3,13.1,4.1c2.9,2.6,4.5,6.2,4.5,10.6
		c0,6.2-2.9,11-8.4,14.3c-4.2,2.4-10.1,3.8-16.2,3.8c-10.3,0-16.6-4.1-16.6-10.9c0-5.7,5.1-9.8,12.1-9.8c4.4,0,8.3,1.7,10.9,4.7
		c1.2,1.3,1.9,2.6,2.8,4.8c3.3-1.5,4.8-3.5,4.8-6.7c0-4.3-4.1-6.9-10.9-6.9c-6.5,0-13.3,2-18.8,5.6c-1.9,1.2-3.8,2.7-5.9,4.6
		l-5.7-9.3c5.6-2.6,18.5-12.6,26.1-20.1c-3.2,0.4-5.7,0.5-14.3,0.9c-1.6,0.1-2.8,0.2-4,0.3L306.8,372.5z M321.9,412.3
		c-1.4,0-2.4,0.8-2.4,2c0,1.6,2,2.7,5.2,2.7c0.7,0,0.9,0,2-0.2C326,413.9,324.3,412.3,321.9,412.3z"/>
	<path class="st2" d="M370.5,407.5c0.1-1.2,0.1-1.8,0.1-2.7c0-1.2,0-1.2-0.2-4.8l-1.2-19.3c-0.1-2.5-0.4-5.2-0.7-8.2h14.2
		c-0.2,1.4-0.5,5.7-0.7,8.2l-1.2,19.3c-0.1,2.6-0.2,3.8-0.2,4.7c0,0.6,0,1.3,0.1,2.8H370.5z M369.4,423.2v-11.5h12.3v11.5H369.4z"/>
</g>
<ellipse class="st0" cx="255" cy="193.5" rx="40" ry="96.5"/>
<ellipse transform="matrix(0.9093 -0.4162 0.4162 0.9093 -68.6124 140.4814)" class="st0" cx="287.9" cy="227.6" rx="96.5" ry="40"/>
<ellipse transform="matrix(0.9093 -0.4162 0.4162 0.9093 -79.6204 141.776)" class="st0" cx="285.3" cy="253.5" rx="40" ry="96.5"/>
<ellipse transform="matrix(0.311 -0.9504 0.9504 0.311 -56.8853 358.9858)" class="st0" cx="219.2" cy="218.7" rx="40" ry="96.5"/>
<ellipse transform="matrix(0.7071 -0.7071 0.7071 0.7071 -114.9462 248.8234)" class="st0" cx="242.9" cy="263.2" rx="96.5" ry="40"/>
</svg>
