<?xml version="1.0" encoding="utf-8"?>
<!-- Generator: Adobe Illustrator 20.0.0, SVG Export Plug-In . SVG Version: 6.00 Build 0)  -->
<svg version="1.1" id="_x32_" xmlns="http://www.w3.org/2000/svg" xmlns:xlink="http://www.w3.org/1999/xlink" x="0px" y="0px"
	 viewBox="0 0 512 512" style="enable-background:new 0 0 512 512;" xml:space="preserve">
<style type="text/css">
	.st0{fill:#FCEE21;}
	.st1{fill:#FCEE21;stroke:#FCEE21;stroke-miterlimit:10;}
</style>
<path class="st0" d="M495,210c0-4.3-0.7-8.7-2-13l0,0c-5.7-17.6-22-29.5-40.4-29.5H333.2L296.9,54.4c-5.6-17.6-22-29.5-40.5-29.5
	c-18.5,0-34.8,11.9-40.5,29.5l18.4,5.9L216,54.4l-36.3,113.1H60.3c-18.5,0-34.8,11.9-40.5,29.5l0,0c-1.4,4.3-2,8.7-2,13
	c0,13.4,6.4,26.4,17.7,34.5l0,0l96.6,69.4L95,426.8l0,0c-1.4,4.4-2.1,8.9-2.1,13.3c0,13.3,6.3,26.2,17.5,34.4l0,0
	c7.4,5.4,16.2,8.1,25,8.1c8.8,0,17.7-2.7,25.1-8.2l0,0l95.9-70.3l95.9,70.3l0,0c7.4,5.5,16.3,8.2,25.1,8.2c8.7,0,17.5-2.7,25-8.1
	l0,0c11.2-8.2,17.5-21,17.5-34.4c0-4.4-0.7-8.9-2.1-13.3l-37.2-112.9l96.6-69.4l0,0C488.6,236.4,495,223.4,495,210z"/>
<path class="st1" d="M454.8,213.2L454.8,213.2l-108.2,77.6c-6.9,4.9-9.7,13.7-7.1,21.7l41.6,126.4l0.2,1.2c0,1.2-0.6,2.4-1.6,3.2
	l0,0c-0.7,0.5-1.5,0.7-2.3,0.7c-0.8,0-1.6-0.2-2.3-0.8l0,0l-107.3-78.7c-6.8-5-16-5-22.8,0l-107.3,78.7c-0.7,0.5-1.5,0.8-2.3,0.8
	c-0.8,0-1.6-0.2-2.3-0.8c-1-0.8-1.6-1.9-1.6-3.2l0.2-1.2l0,0l41.6-126.4c2.6-8-0.2-16.8-7.1-21.7L58.1,213.2l0,0
	c-1-0.7-1.6-1.9-1.6-3.2l0.2-1.2c0.5-1.6,2-2.7,3.7-2.7h133.4c8.4,0,15.8-5.4,18.4-13.4l40.6-126.5c0.5-1.6,2-2.7,3.7-2.7
	c1.7,0,3.2,1.1,3.7,2.7l40.6,126.5c2.6,8,10,13.4,18.4,13.4h133.4c1.7,0,3.2,1.1,3.7,2.7l0.2,1.2
	C456.4,211.2,455.8,212.4,454.8,213.2z"/>
</svg>
