<?xml version="1.0" encoding="utf-8"?>
<!-- Generator: Adobe Illustrator 20.0.0, SVG Export Plug-In . SVG Version: 6.00 Build 0)  -->
<svg version="1.1" id="レイヤー_1" xmlns="http://www.w3.org/2000/svg" xmlns:xlink="http://www.w3.org/1999/xlink" x="0px"
	 y="0px" viewBox="0 0 24 24" style="enable-background:new 0 0 24 24;" xml:space="preserve">
<style type="text/css">
	.st0{fill:#FFFFFF;}
	.st1{fill:none;}
</style>
<g id="レイヤー_2">
</g>
<g id="レイヤー_1_1_">
	<rect x="9" y="11.7" class="st0" width="9.8" height="1"/>
	<rect x="9" y="9.2" class="st0" width="9.8" height="1"/>
	<rect x="9" y="6.7" class="st0" width="9.8" height="1"/>
	<path class="st1" d="M8,6h11.8v11.8H8V6z"/>
	<g>
		<path class="st0" d="M9.5,16.8H9.1V14h0.3l0.9,1.3l0.9-1.3h0.3v2.8h-0.4v-1.9L10.4,16h-0.2l-0.7-1.1V16.8z"/>
		<path class="st0" d="M12.4,16.4h1.3v0.4H12V14h1.7v0.4h-1.3v0.8h1.2v0.4h-1.2V16.4z"/>
		<path class="st0" d="M14.2,16.8V14h0.3l1.3,1.9V14h0.4v2.8h-0.3l-1.3-1.9v1.9H14.2z"/>
		<path class="st0" d="M16.8,16v-1.9h0.4V16c0,0.3,0.3,0.4,0.6,0.4c0.3,0,0.6-0.1,0.6-0.4v-1.9h0.4V16c0,0.5-0.5,0.8-1,0.8
			C17.3,16.9,16.8,16.6,16.8,16z"/>
	</g>
</g>
</svg>
