<?xml version="1.0" encoding="utf-8"?>
<!-- Generator: Adobe Illustrator 20.0.0, SVG Export Plug-In . SVG Version: 6.00 Build 0)  -->
<svg version="1.1" xmlns="http://www.w3.org/2000/svg" xmlns:xlink="http://www.w3.org/1999/xlink" x="0px" y="0px"
	 viewBox="0 0 24 24" style="enable-background:new 0 0 24 24;" xml:space="preserve">
<style type="text/css">
	.st0{fill:#FFFFFF;}
	.st1{fill:none;}
</style>
<g id="レイヤー_2">
</g>
<g id="レイヤー_1">
	<rect x="2" y="12.5" class="st0" width="20" height="2"/>
	<rect x="2" y="7.5" class="st0" width="20" height="2"/>
	<rect x="2" y="2.5" class="st0" width="20" height="2"/>
	<path class="st1" d="M0,1h24v24H0V1z"/>
	<g>
		<path class="st0" d="M3,23H2.2v-5.6h0.7l1.8,2.7l1.8-2.7h0.6V23H6.3v-3.9l-1.5,2.2H4.4L3,19.1V23z"/>
		<path class="st0" d="M9,22.2h2.6V23H8.2v-5.6h3.4v0.8H9v1.6h2.5v0.8H9V22.2z"/>
		<path class="st0" d="M12.6,23v-5.6l0.6,0l2.7,3.9v-3.9h0.8V23h-0.6l-2.7-3.9V23H12.6z"/>
		<path class="st0" d="M17.8,21.4v-3.9h0.8v3.9c0,0.6,0.7,0.9,1.3,0.9c0.6,0,1.2-0.3,1.2-0.9v-3.9H22v3.9c0,1.1-1.1,1.7-2.1,1.7
			C18.9,23.1,17.8,22.5,17.8,21.4z"/>
	</g>
</g>
</svg>
