<?xml version="1.0" encoding="utf-8"?>
<!-- Generator: Adobe Illustrator 20.0.0, SVG Export Plug-In . SVG Version: 6.00 Build 0)  -->
<svg version="1.1" id="レイヤー_1" xmlns="http://www.w3.org/2000/svg" xmlns:xlink="http://www.w3.org/1999/xlink" x="0px"
	 y="0px" viewBox="0 0 24 24" style="enable-background:new 0 0 24 24;" xml:space="preserve">
<style type="text/css">
	.st0{fill:none;}
	.st1{fill:#FFFFFF;}
</style>
<path class="st0" d="M0,0h24v24H0V0z"/>
<path class="st1" d="M20,6H4C3.4,6,3,5.6,3,5V4c0-0.6,0.4-1,1-1h16c0.6,0,1,0.4,1,1v1C21,5.6,20.6,6,20,6z"/>
<path class="st1" d="M20,13.5H4c-0.6,0-1-0.4-1-1v-1c0-0.6,0.4-1,1-1h16c0.6,0,1,0.4,1,1v1C21,13.1,20.6,13.5,20,13.5z"/>
<path class="st1" d="M20,21H4c-0.6,0-1-0.4-1-1v-1c0-0.6,0.4-1,1-1h16c0.6,0,1,0.4,1,1v1C21,20.6,20.6,21,20,21z"/>
</svg>
