<?xml version="1.0" encoding="utf-8"?>
<!-- Generator: Adobe Illustrator 20.0.0, SVG Export Plug-In . SVG Version: 6.00 Build 0)  -->
<svg version="1.1" id="レイヤー_1" xmlns="http://www.w3.org/2000/svg" xmlns:xlink="http://www.w3.org/1999/xlink" x="0px"
	 y="0px" viewBox="0 0 24 24" style="enable-background:new 0 0 24 24;" xml:space="preserve">
<style type="text/css">
	.st0{fill:#78909C;}
</style>
<circle class="st0" cx="12" cy="13" r="2.9"/>
<path class="st0" d="M9.2,3.8L7.6,5.7H4.7c-1,0-1.8,0.8-1.8,1.8v11c0,1,0.8,1.8,1.8,1.8h14.7c1,0,1.8-0.8,1.8-1.8v-11
	c0-1-0.8-1.8-1.8-1.8h-2.9l-1.7-1.8H9.2z M12,17.6c-2.5,0-4.6-2.1-4.6-4.6S9.5,8.4,12,8.4s4.6,2.1,4.6,4.6S14.5,17.6,12,17.6z"/>
</svg>
