<?xml version="1.0" encoding="utf-8"?>
<!-- Generator: Adobe Illustrator 20.0.0, SVG Export Plug-In . SVG Version: 6.00 Build 0)  -->
<svg version="1.1" id="_x32_" xmlns="http://www.w3.org/2000/svg" xmlns:xlink="http://www.w3.org/1999/xlink" x="0px" y="0px"
	 viewBox="0 0 512 512" style="enable-background:new 0 0 512 512;" xml:space="preserve">
<style type="text/css">
	.st0{fill:#00ACC1;}
</style>
<g>
	<path class="st0" d="M432.7,128.3l-49-49L304.4,0l-53.3,53.3l11.7,37.3l-107.6,80.5l-71.7-24.7L3.6,221l125.3,125.3L4.3,471L0,512
		l41-4.3L165.7,383L291,508.4l74.6-79.8l-24.7-71.7l80.5-107.6l37.4,11.7l53.3-53.3L432.7,128.3z M448.3,218.5l-41-12.8L299.2,350.3
		l23.8,69.1l-32.9,35.2L173.7,338.3L57.3,221.9L92.5,189l69.1,23.8l144.6-108.1l-12.8-41l10.9-10.9l52.9,52.9l49,49l52.9,52.9
		L448.3,218.5z"/>
</g>
</svg>
