<?xml version="1.0" encoding="utf-8"?>
<!-- Generator: Adobe Illustrator 20.0.0, SVG Export Plug-In . SVG Version: 6.00 Build 0)  -->
<svg version="1.1" id="レイヤー_1" xmlns="http://www.w3.org/2000/svg" xmlns:xlink="http://www.w3.org/1999/xlink" x="0px"
	 y="0px" viewBox="0 0 24 24" style="enable-background:new 0 0 24 24;" xml:space="preserve">
<style type="text/css">
	.st0{fill:none;}
	.st1{fill:#26C6DA;}
</style>
<path class="st0" d="M0,0h24v24H0V0z"/>
<path class="st1" d="M15.1,20.2c0-0.5-0.1-1-0.1-1.5c0-0.1-0.1-0.3-0.4-0.4c-0.2-0.1-0.3,0-0.4,0c-0.5,0.2-1,0.3-1.5,0.5
	c-0.1,0-0.3-0.1-0.4-0.2c0,0-0.1-0.1-0.1-0.1L11,16.3c0-0.1,0-0.1,0-0.2c0-0.2,0-0.4,0.1-0.5c0.4-0.3,0.9-0.7,1.3-1l0,0l0,0
	c-0.9-0.2-1.7-0.2-2.3-0.2c-2.7,0-8,1.3-8,4v2C6.3,20.3,10.7,20.3,15.1,20.2z"/>
<path class="st1" d="M9.9,12.4c0,0,0.2,0,0.5,0c0.3,0,0.6,0,0.8,0c0.4-0.7,0.8-1.4,1.1-2.1c0,0,0.1-0.2,0.3-0.2c0.2-0.1,0.4,0,0.4,0
	c0.2,0.1,0.3,0.1,0.5,0.2c0.2-0.4,0.4-1.1,0.3-1.8c-0.1-1.7-1.6-4-4-4c-2.2,0-4,1.8-4,4C5.9,10.6,7.7,12.4,9.9,12.4z"/>
<path class="st1" d="M21.1,14.9c0-0.2,0.1-0.3,0.1-0.5s0-0.4-0.1-0.5l1.1-0.9c0.1-0.1,0.1-0.2,0.1-0.3l-1.1-1.9
	c-0.1-0.1-0.2-0.2-0.3-0.1l-1.4,0.5c-0.3-0.2-0.6-0.4-0.9-0.5l-0.2-1.5c0.1-0.1-0.1-0.2-0.2-0.2H16c-0.1,0-0.3,0.1-0.3,0.2l-0.2,1.5
	c-0.3,0.1-0.6,0.3-0.9,0.5l-1.4-0.5c-0.1-0.1-0.2,0-0.3,0.1l-1.1,1.9c-0.1,0.1,0,0.2,0.1,0.3l1.1,0.9c0,0.2-0.1,0.3-0.1,0.5
	s0,0.4,0.1,0.5l-1.1,0.9c-0.1,0.1-0.1,0.2-0.1,0.3l1.1,1.9c0.1,0.1,0.2,0.2,0.3,0.1l1.4-0.5c0.3,0.2,0.6,0.4,0.9,0.5l0.2,1.4
	c0,0.1,0.1,0.2,0.3,0.2h2.2c0.1,0,0.3-0.1,0.3-0.2l0.2-1.4c0.3-0.1,0.7-0.3,0.9-0.5l1.4,0.5c0.1,0.1,0.3,0,0.3-0.1l1.1-1.9
	c0.1-0.1,0.1-0.3-0.1-0.3L21.1,14.9z M17,16.3c-1,0-1.9-0.9-1.9-1.9s0.9-1.9,1.9-1.9c1,0,1.9,0.9,1.9,1.9S18.1,16.3,17,16.3z"/>
</svg>
