<?xml version="1.0" encoding="utf-8"?>
<!-- Generator: Adobe Illustrator 20.0.0, SVG Export Plug-In . SVG Version: 6.00 Build 0)  -->
<svg version="1.1" id="レイヤー_1" xmlns="http://www.w3.org/2000/svg" xmlns:xlink="http://www.w3.org/1999/xlink" x="0px"
	 y="0px" viewBox="0 0 24 24" style="enable-background:new 0 0 24 24;" xml:space="preserve">
<style type="text/css">
	.st0{fill:none;}
	.st1{fill:#26C6DA;}
</style>
<path class="st0" d="M0,0h24v24H0V0z"/>
<path class="st1" d="M15,10.6c0-0.1,0-0.2,0-0.4s0-0.3,0-0.4l0.9-0.7c0.1,0,0.1-0.2,0-0.2l-0.8-1.4c0-0.1-0.2-0.1-0.2-0.1l-1,0.4
	c-0.2-0.2-0.4-0.3-0.7-0.4L13,6.3c0-0.1-0.1-0.2-0.2-0.2h-1.6c-0.1,0-0.2,0.1-0.2,0.2l-0.2,1.1c-0.2,0.1-0.4,0.2-0.7,0.4l-1-0.4
	c-0.1,0-0.2,0-0.2,0.1L8.1,8.9c0,0,0,0.2,0.1,0.2L9,9.8c0,0.1,0,0.2,0,0.4s0,0.3,0,0.4l-0.9,0.7c-0.1,0-0.1,0.2,0,0.2l0.8,1.4
	C9,13,9.1,13,9.2,13l1-0.4c0.2,0.2,0.4,0.3,0.7,0.4l0.2,1.1c0,0.1,0.1,0.2,0.2,0.2h1.6c0.1,0,0.2-0.1,0.2-0.2l0.2-1.1
	c0.2-0.1,0.5-0.2,0.7-0.4l1,0.4c0.1,0,0.2,0,0.2-0.1l0.8-1.4c0-0.1,0-0.2,0-0.2L15,10.6z M12,11.6c-0.8,0-1.4-0.7-1.4-1.4
	s0.7-1.4,1.4-1.4s1.4,0.7,1.4,1.4S12.8,11.6,12,11.6z"/>
</svg>
