<?xml version="1.0" encoding="utf-8"?>
<!-- Generator: Adobe Illustrator 20.0.0, SVG Export Plug-In . SVG Version: 6.00 Build 0)  -->
<svg version="1.1" id="レイヤー_1" xmlns="http://www.w3.org/2000/svg" xmlns:xlink="http://www.w3.org/1999/xlink" x="0px"
	 y="0px" viewBox="0 0 24 24" style="enable-background:new 0 0 24 24;" xml:space="preserve">
<style type="text/css">
	.st0{fill:none;}
	.st1{fill:#90A4AE;}
</style>
<path class="st0" d="M0,0h24v24H0V0z"/>
<path class="st1" d="M5.5,22v-7.5H4V9c0-1.1,0.9-2,2-2h3c1.1,0,2,0.9,2,2v5.5H9.5V22H5.5z M18,22v-6h3l-2.5-7.6
	c-0.3-0.8-1-1.4-1.9-1.4h-0.1c-0.9,0-1.6,0.6-1.9,1.4L12,16h3v6H18z M7.5,6c1.1,0,2-0.9,2-2s-0.9-2-2-2s-2,0.9-2,2S6.4,6,7.5,6z
	 M16.5,6c1.1,0,2-0.9,2-2s-0.9-2-2-2s-2,0.9-2,2S15.4,6,16.5,6z"/>
</svg>
