<?xml version="1.0" encoding="utf-8"?>
<!-- Generator: Adobe Illustrator 20.0.0, SVG Export Plug-In . SVG Version: 6.00 Build 0)  -->
<svg version="1.1" id="_x32_" xmlns="http://www.w3.org/2000/svg" xmlns:xlink="http://www.w3.org/1999/xlink" x="0px" y="0px"
	 viewBox="0 0 512 512" style="enable-background:new 0 0 512 512;" xml:space="preserve">
<style type="text/css">
	.st0{fill:#ECEFF1;stroke:#CFD8DC;stroke-width:15;stroke-miterlimit:10;}
	.st1{fill:#B0BEC5;stroke:#B0BEC5;stroke-miterlimit:10;}
</style>
<path class="st0" d="M523,317.9H185.7c-39.7,0-72.1-32.5-72.1-72.1l0,0c0-39.7,32.5-72.1,72.1-72.1H523V317.9z"/>
<g>
	<path class="st1" d="M197,223.8c-3.5,5.3-7,9.4-11.9,13.9c-2.1-2.6-3.8-4.3-6.2-6.2c6.8-6,11.2-11.5,14.5-18.1c1-2,1.5-3.4,1.8-5
		l9.6,1.4c-0.7,1.4-0.7,1.4-2.8,5.6h36.9c4.6,0,7.4-0.2,10-0.6v9.4c-2.6-0.3-5.8-0.5-10-0.5H197V223.8z M223.8,281.4
		c-4.8-4.6-8.4-7.9-13.9-12.3c-6.2,5.3-11.6,8.7-23.1,14.4c-1.6-2.8-2.8-4.3-6-7.5c10.9-4.6,16.3-7.6,22.2-12.2
		c-4.9-3.6-7.6-5.4-13.9-9.1l5.8-5.4c5.8,3.4,8.5,5,14.2,8.9c3.8-4,6-7.3,7-10.2l8.6,4.1c-0.8,0.9-1.7,2.1-3.4,4.5
		c-1.9,2.7-3.2,4.4-5.2,6.6c4.9,3.8,8.9,7.1,13.9,11.6L223.8,281.4z M192.7,247c-4.2,0-6.8,0.2-9.2,0.5v-8.4
		c1.8,0.3,3.8,0.4,6.9,0.4H231c5.3,0,7-0.1,9.4-0.3c-0.3,2.6-0.4,4.6-0.4,7.3c0,8.5,0.8,15.4,2.2,20.6c1,3.1,1.4,4.2,2.8,5.4
		c1.1-1.5,1.7-5.3,1.9-11.8c2.6,2.5,4.2,3.5,6.9,4.8c-1.3,12.6-3.8,17.7-8.6,17.7c-3.6,0-7.7-4.2-9.9-10.2
		c-2.5-6.6-3.5-14.1-3.7-25.8h-38.9V247z M194.6,227.4c1,0.2,3.6,0.3,6,0.3h33.5c4,0,6.7-0.2,8.5-0.4v7.9c-2.4-0.3-4.5-0.4-8.5-0.4
		h-31.9c-3.3,0-5.4,0.1-7.6,0.3V227.4z"/>
	<path class="st1" d="M265.8,279.4c-0.1-1.4-0.2-1.9-0.4-3.8c-1.5-9.7-2.1-15.8-2.1-23.9c0-10.3,1-19.4,3.3-31.3
		c0.9-4.5,1-5.3,1.2-7.4l10.6,1.1c-1.9,4.7-3.8,13.7-5,23.9c-0.8,6-1.1,10.7-1.2,17.7c0,1.8-0.1,2.4-0.2,4.4c0.9-2.8,1-3.4,4.2-10.6
		l6.4,2.9c-4.4,9.3-7.1,18.6-7.1,24.2c0,0.5,0,1.1,0.1,2.2L265.8,279.4z M299.8,247.8c-4,4.6-5.7,8.1-5.7,11.5c0,4.6,4.4,7,12.7,7
		c7,0,14-1.1,19-3l0.8,10.2c-1.1,0.1-1.4,0.2-3.3,0.5c-6.4,1-11.3,1.5-16.6,1.5c-9.9,0-16.3-2.2-19.8-7c-1.5-2-2.4-5-2.4-7.8
		c0-5.2,2.4-10.6,7.4-16.5L299.8,247.8z M286.6,221.3c3.6,1,7.8,1.3,14.8,1.3c8.9,0,16.5-0.7,21.8-2.2l0.5,9.7
		c-0.6,0.1-1.8,0.2-5.7,0.7c-5.1,0.6-11.2,1-17.1,1c-5.8,0-5.9,0-14.4-0.9L286.6,221.3z"/>
	<path class="st1" d="M364.6,211.6c-0.5,1.5-0.5,1.5-1.3,5.4c-0.4,1.9-0.8,3.5-1.7,7c5.5-0.6,9.7-1.3,12.8-2.2l0.2,9.2
		c-0.9,0.1-1,0.1-2.6,0.4c-2.9,0.5-7.8,1-12.7,1.4c-2.3,8-5.2,15.6-8.8,23.2c-1.8,3.9-2.6,5.4-5.6,11c-1,1.9-1,1.9-1.5,2.9l-9.2-5.1
		c2.8-3.7,5-7.3,7.8-12.8c3.1-6.4,4.5-9.7,7.5-18.9c-3.6,0.1-4.1,0.1-5,0.1c-1,0-1.5,0-3.2-0.1l-4.2-0.1v-9.1
		c2.9,0.6,5.9,0.7,10.8,0.7c1,0,2.3,0,4.1-0.1c1.4-5.7,2.2-10.5,2.4-13.9L364.6,211.6z M400.9,276.4c-2.9-3.4-7.5-7.2-12.2-9.9
		c0.1,0.7,0.2,1.3,0.2,1.6c0,3-1.4,6.4-3.4,8.5c-2.8,2.9-7.6,4.5-13.3,4.5c-10.6,0-17.4-5.3-17.4-13.4s7.1-13.8,17.3-13.8
		c2.4,0,4.1,0.2,7.4,0.7c-0.2-3.7-0.4-6.8-0.4-9.2c0-3.1,0.2-5.4,0.6-8.1l9.3,0.5c-0.8,3-1,4.8-1,8.1c0,3.2,0.2,6.4,0.7,11
		c5.8,2.6,6.6,3,12.6,7.4c1.2,0.8,1.5,1.1,2.8,2.2c0.6,0.6,0.6,0.6,1.2,1.1L400.9,276.4z M372.5,261.8c-5.2,0-8.6,2.2-8.6,5.5
		s2.9,5.2,7.8,5.2c5.4,0,8.1-2.2,8.1-6.7c0-0.8-0.2-2.7-0.2-2.7C376.9,262.1,375,261.8,372.5,261.8z M401.3,239.6
		c-7-4.6-14.1-8.1-23-11.2l4.8-7.8c9.4,3.6,15.4,6.4,22.6,10.7L401.3,239.6z"/>
	<path class="st1" d="M437,243.8c7.3-2.9,10.8-3.7,16.8-3.7c13.7,0,22.5,7,22.5,18c0,7.6-3.8,13.7-10.9,17.7c-5.2,3-12,4.6-19.4,4.6
		c-6.7,0-12.3-1.3-15.5-3.7c-3-2.2-4.8-5.6-4.8-9.2c0-6.6,5.8-11.4,13.8-11.4c5.6,0,10.5,2.3,13.8,6.6c1.6,2,2.5,3.8,3.7,7.2
		c6.6-2.5,9.5-5.9,9.5-11.6c0-6.2-6.2-10.3-15.8-10.3c-11.7,0-23.4,4.7-33,13.4l-5.4-8.6c2.8-1.4,6-3.5,11.3-7.5
		c7.4-5.7,17.8-14.6,23.9-20.8c0.2-0.2,1-1,1.4-1.4l-0.1-0.1c-3,0.4-8.2,0.7-22.6,1.4c-1.8,0.1-2.3,0.2-3.8,0.4l-0.4-9.6
		c2.7,0.3,5,0.5,9.4,0.5c6.8,0,16.6-0.4,24.3-1c2.8-0.2,3.7-0.4,5-1l5,7c-1.4,0.7-1.9,1.2-4.2,3.3c-4,3.7-9.8,8.9-12.6,11.2
		c-1.4,1.2-7.2,5.5-8.8,6.6c-2,1.4-2,1.4-3.3,2.1L437,243.8z M439.4,263.8c-2.9,0-4.7,1.4-4.7,3.7c0,3.2,3.6,5,9.5,5
		c1.5,0,1.9,0,4.2-0.3C446.9,266.6,443.8,263.8,439.4,263.8z"/>
</g>
</svg>
