<?xml version="1.0" encoding="utf-8"?>
<!-- Generator: Adobe Illustrator 20.0.0, SVG Export Plug-In . SVG Version: 6.00 Build 0)  -->
<svg version="1.1" id="_x32_" xmlns="http://www.w3.org/2000/svg" xmlns:xlink="http://www.w3.org/1999/xlink" x="0px" y="0px"
	 viewBox="0 0 512 512" style="enable-background:new 0 0 512 512;" xml:space="preserve">
<style type="text/css">
	.st0{fill:#ECEFF1;fill-opacity:0.5;stroke:#ECEFF1;stroke-width:15;stroke-miterlimit:10;}
	.st1{fill:#FFFFFF;}
</style>
<path class="st0" d="M520.6,271H135.9c-62.8,0-114.2-51.4-114.2-114.2v0C21.7,94,73.1,42.6,135.9,42.6h384.7V271z"/>
<g>
	<path class="st1" d="M101.7,125.7c2.9,0.3,5.2,0.4,9.6,0.4c7.6,0,13-0.3,20.6-1.1c-0.3-0.8-0.3-0.8-1.1-2.6c-2.5-5.8-3.9-8.9-4-9.1
		l12.5-1.7c0.4,2.5,1.4,5.5,4.1,12.1c8.5-1.1,20.1-3.7,27-6l1,10.6c-1,0.2-1,0.2-3.4,0.7c-6.7,1.6-17.8,3.8-20.9,4.2
		c1.6,3.7,2.2,5,3.9,8.2c8.6-1.8,13.2-2.8,13.8-2.9c5.7-1.4,6.9-1.8,9.5-2.9l1,10.9c-1.9,0.3-4,0.7-6.3,1.3c-4.1,1-7.4,1.7-9.8,2.2
		c-2.5,0.5-2.5,0.5-3.7,0.8c5.2,8.6,6.8,10.7,13.4,18.3l-8.8,6.3c-7.2-3-13.2-4.1-23-4.1c-7.6,0-13.4,1-16.8,2.8
		c-2.8,1.6-4.3,3.7-4.3,6.1c0,2.4,1.7,4.7,4.3,5.8c3.2,1.4,8.5,2.2,14.3,2.2c10.4,0,24.5-3,30.8-6.5l1.8,12.3
		c-1.9,0.3-1.9,0.3-6.5,1.5c-8.5,2.3-16.8,3.4-25.6,3.4c-11.5,0-18.8-1.5-24.4-4.9c-4.8-3-7.7-8.1-7.7-13.7c0-5.4,3-10.4,8.4-13.9
		c5.2-3.3,13.2-5,23.3-5c6.1,0,11.9,0.7,17.3,2.1c-1.6-1.5-3.5-4.3-7.7-11.2c-10.6,1.6-17,2-38.7,2.7c-1.7,0.1-2.4,0.1-4.1,0.3
		l-0.4-10.9c2.9,0.4,3.5,0.4,10.3,0.4c10.5,0,18.8-0.6,28.3-1.9c-0.6-1.2-1-1.8-1.8-3.7c-1-2.1-1.3-2.7-2.1-4.5
		c-8,0.9-15.2,1.3-26.8,1.4c-4.2,0-4.7,0.1-6.8,0.2L101.7,125.7z"/>
	<path class="st1" d="M195.2,197c-0.1-1.8-0.2-2.4-0.5-4.7c-1.9-12.1-2.6-19.8-2.6-29.9c0-12.9,1.2-24.3,4.1-39.1
		c1.1-5.6,1.3-6.6,1.5-9.3l13.2,1.4c-2.4,5.9-4.7,17.1-6.3,29.9c-1,7.5-1.4,13.4-1.5,22.1c0,2.2-0.1,3-0.2,5.5
		c1.1-3.5,1.3-4.2,5.2-13.2l8,3.6c-5.5,11.6-8.9,23.2-8.9,30.3c0,0.6,0,1.4,0.1,2.7L195.2,197z M237.8,157.5
		c-5,5.8-7.1,10.1-7.1,14.4c0,5.7,5.5,8.7,15.9,8.7c8.8,0,17.5-1.4,23.8-3.8l1,12.7c-1.4,0.1-1.8,0.2-4.1,0.6
		c-8,1.3-14.1,1.9-20.7,1.9c-12.4,0-20.4-2.8-24.8-8.7c-1.9-2.5-3-6.2-3-9.8c0-6.5,3-13.2,9.2-20.6L237.8,157.5z M221.3,124.4
		c4.5,1.2,9.8,1.6,18.5,1.6c11.1,0,20.6-0.9,27.2-2.7l0.6,12.1c-0.8,0.1-2.3,0.3-7.1,0.9c-6.4,0.8-14,1.2-21.4,1.2
		c-7.3,0-7.4,0-18-1.1L221.3,124.4z"/>
	<path class="st1" d="M318.8,112.3c-0.6,1.9-0.6,1.9-1.6,6.7c-0.5,2.4-1,4.4-2.1,8.8c6.9-0.7,12.1-1.6,16-2.8l0.3,11.5
		c-1.1,0.1-1.3,0.1-3.2,0.5c-3.6,0.6-9.7,1.3-15.9,1.8c-2.9,10-6.5,19.5-11,29c-2.3,4.9-3.2,6.7-7,13.7c-1.3,2.4-1.3,2.4-1.9,3.6
		l-11.5-6.4c3.5-4.6,6.3-9.1,9.7-16c3.9-8,5.6-12.1,9.4-23.6c-4.5,0.1-5.1,0.1-6.3,0.1c-1.3,0-1.9,0-4-0.1l-5.3-0.1v-11.4
		c3.6,0.7,7.4,0.9,13.5,0.9c1.2,0,2.9,0,5.1-0.1c1.7-7.1,2.8-13.1,3-17.4L318.8,112.3z M364.1,193.3c-3.6-4.3-9.4-9-15.3-12.4
		c0.1,0.9,0.2,1.6,0.2,2c0,3.7-1.7,8-4.3,10.6c-3.5,3.6-9.5,5.6-16.6,5.6c-13.2,0-21.8-6.6-21.8-16.8c0-10.1,8.9-17.2,21.6-17.2
		c3,0,5.1,0.2,9.3,0.9c-0.3-4.6-0.5-8.5-0.5-11.5c0-3.9,0.2-6.8,0.8-10.1l11.6,0.6c-1,3.7-1.2,6-1.2,10.1c0,4,0.2,8,0.9,13.7
		c7.2,3.2,8.2,3.7,15.8,9.2c1.5,1,1.9,1.4,3.5,2.7c0.8,0.8,0.8,0.8,1.5,1.4L364.1,193.3z M328.6,175c-6.5,0-10.7,2.7-10.7,6.9
		c0,4.1,3.6,6.5,9.8,6.5c6.8,0,10.1-2.8,10.1-8.4c0-1-0.2-3.4-0.2-3.4C334.1,175.4,331.7,175,328.6,175z M364.6,147.3
		c-8.7-5.8-17.6-10.1-28.8-14l6-9.7c11.8,4.5,19.3,8,28.2,13.4L364.6,147.3z"/>
	<path class="st1" d="M409.2,152.6c9.1-3.6,13.5-4.6,21-4.6c17.1,0,28.1,8.8,28.1,22.5c0,9.5-4.7,17.1-13.6,22.1
		c-6.5,3.7-15,5.7-24.2,5.7c-8.4,0-15.4-1.6-19.4-4.6c-3.8-2.8-6-7-6-11.5c0-8.3,7.2-14.3,17.2-14.3c7,0,13.1,2.9,17.3,8.2
		c2,2.5,3.1,4.7,4.6,9c8.3-3.1,11.9-7.4,11.9-14.5c0-7.8-7.7-12.9-19.8-12.9c-14.6,0-29.2,5.9-41.2,16.8l-6.8-10.8
		c3.5-1.7,7.5-4.4,14.1-9.4c9.3-7.1,22.3-18.3,29.9-26c0.2-0.2,1.2-1.2,1.8-1.8l-0.1-0.1c-3.8,0.5-10.2,0.9-28.3,1.7
		c-2.2,0.1-2.9,0.2-4.8,0.5l-0.5-12c3.4,0.4,6.3,0.6,11.8,0.6c8.5,0,20.7-0.5,30.4-1.2c3.5-0.3,4.6-0.5,6.2-1.3l6.2,8.8
		c-1.7,0.9-2.4,1.5-5.2,4.1c-5,4.6-12.3,11.1-15.7,14c-1.8,1.5-9,6.9-11,8.2c-2.5,1.7-2.5,1.7-4.1,2.6L409.2,152.6z M412.2,177.5
		c-3.6,0-5.9,1.8-5.9,4.6c0,4,4.5,6.3,11.9,6.3c1.9,0,2.4,0,5.2-0.4C421.6,181.1,417.8,177.5,412.2,177.5z"/>
</g>
</svg>
