<?xml version="1.0" encoding="utf-8"?>
<!-- Generator: Adobe Illustrator 20.0.0, SVG Export Plug-In . SVG Version: 6.00 Build 0)  -->
<svg version="1.1" id="_x32_" xmlns="http://www.w3.org/2000/svg" xmlns:xlink="http://www.w3.org/1999/xlink" x="0px" y="0px"
	 viewBox="0 0 512 512" style="enable-background:new 0 0 512 512;" xml:space="preserve">
<style type="text/css">
	.st0{fill:#90A4AE;}
</style>
<g>
	<path class="st0" d="M384.2,290.8c9.6-13.7,12.8-31,8.5-47.1l-43.7-135.5H163.1l-43.8,135.5c-4.3,16.2-1.2,33.5,8.5,47.1
		l104.6,148.3v23.7c-6.4,5-10.4,12.8-10.4,21.6c0,15.2,12.3,27.6,27.6,27.6v-48.8v-6.3V264.3c-10.4-2.8-18-12.3-18-23.6
		c0-13.5,10.9-24.4,24.4-24.4c13.5,0,24.4,10.9,24.4,24.4c0,11.3-7.6,20.7-18,23.5v192.6v6.3V512c15.2,0,27.6-12.3,27.6-27.6
		c0-8.8-4.1-16.5-10.4-21.6v-23.7L384.2,290.8z"/>
	<rect x="157.1" class="st0" width="197.8" height="88"/>
</g>
</svg>
