<?xml version="1.0" encoding="utf-8"?>
<!-- Generator: Adobe Illustrator 20.0.0, SVG Export Plug-In . SVG Version: 6.00 Build 0)  -->
<svg version="1.1" id="_x32_" xmlns="http://www.w3.org/2000/svg" xmlns:xlink="http://www.w3.org/1999/xlink" x="0px" y="0px"
	 viewBox="0 0 512 512" style="enable-background:new 0 0 512 512;" xml:space="preserve">
<style type="text/css">
	.st0{fill:#90A4AE;}
</style>
<g>
	<path class="st0" d="M362.6,190.5V56.2H149.3v134.3L0,190.8v265h211v-96.4h90v96.4h211v-265L362.6,190.5z M105.2,404.5H65.4v-43.7
		h39.8V404.5z M105.2,292.6H65.4v-43.8h39.8V292.6z M275.9,292.6h-39.8v-43.8h39.8V292.6z M256,180.7c-27.3,0-49.5-22.2-49.5-49.5
		c0-27.3,22.2-49.5,49.5-49.5s49.5,22.2,49.5,49.5C305.5,158.5,283.3,180.7,256,180.7z M446.6,404.5h-39.8v-43.7h39.8V404.5z
		 M446.6,292.6h-39.8v-43.8h39.8V292.6z"/>
	<path class="st0" d="M256,93c-21.1,0-38.2,17.1-38.2,38.2c0,21.1,17.1,38.2,38.2,38.2c21.1,0,38.2-17.1,38.2-38.2
		C294.2,110.1,277.1,93,256,93z M263.6,133.6c0,2.7-1.8,5-4.2,5.9c-1,0.7-2.3,1.1-3.6,1.1h-19.6c-3.6,0-6.6-3-6.6-6.6
		c0-3.6,3-6.6,6.6-6.6H251v-20.8c0-3.5,2.8-6.3,6.3-6.3c3.5,0,6.3,2.8,6.3,6.3L263.6,133.6L263.6,133.6z"/>
</g>
</svg>
