<!--?xml version="1.0" encoding="utf-8"?-->
<!-- Generator: Adobe Illustrator 18.0.0, SVG Export Plug-In . SVG Version: 6.00 Build 0)  -->

<svg version="1.1" id="_x32_" xmlns="http://www.w3.org/2000/svg" xmlns:xlink="http://www.w3.org/1999/xlink" x="0px" y="0px" viewBox="0 0 512 512" style="width: 64px; height: 64px; opacity: 1;" xml:space="preserve">
<style type="text/css">
	.st0{fill:#4B4B4B;}
</style>
<g>
	<path class="st0" d="M477.759,451.676c-4.168-22.9-19.242-42.33-40.393-52.049l-91.027-37.199
		c-15.193-6.978-24.924-22.164-24.924-38.881v-13.394c0-6.344,1.051-12.639,3.125-18.635c0,0,57.258-76.402,57.258-146.85
		C381.798,56.609,325.474,0,256.001,0C186.527,0,130.2,56.609,130.2,144.668c0,70.447,57.26,146.85,57.26,146.85
		c2.064,5.996,3.125,12.291,3.125,18.635v13.394c0,16.717-9.74,31.902-24.924,38.881l-91.028,37.199
		c-21.15,9.719-36.236,29.148-40.392,52.049L29.563,512h226.438h226.436L477.759,451.676z" style="fill: rgb(75, 75, 75);"></path>
</g>
</svg>
